<svg width="30" height="30" viewBox="0 0 30 30" fill="none" xmlns="http://www.w3.org/2000/svg">
<g id="Print" clip-path="url(#clip0_273_84)">
<path id="Vector" d="M23.75 10H6.25C4.175 10 2.5 11.675 2.5 13.75V18.75C2.5 20.125 3.625 21.25 5 21.25H7.5V23.75C7.5 25.125 8.625 26.25 10 26.25H20C21.375 26.25 22.5 25.125 22.5 23.75V21.25H25C26.375 21.25 27.5 20.125 27.5 18.75V13.75C27.5 11.675 25.825 10 23.75 10ZM18.75 23.75H11.25C10.5625 23.75 10 23.1875 10 22.5V17.5H20V22.5C20 23.1875 19.4375 23.75 18.75 23.75ZM23.75 15C23.0625 15 22.5 14.4375 22.5 13.75C22.5 13.0625 23.0625 12.5 23.75 12.5C24.4375 12.5 25 13.0625 25 13.75C25 14.4375 24.4375 15 23.75 15ZM21.25 3.75H8.75C8.0625 3.75 7.5 4.3125 7.5 5V7.5C7.5 8.1875 8.0625 8.75 8.75 8.75H21.25C21.9375 8.75 22.5 8.1875 22.5 7.5V5C22.5 4.3125 21.9375 3.75 21.25 3.75Z" fill="#F8F9FE"/>
</g>
<defs>
<clipPath id="clip0_273_84">
<rect width="30" height="30" fill="white"/>
</clipPath>
</defs>
</svg>
